<svg width="125" height="40" viewBox="0 0 125 40" fill="none" xmlns="http://www.w3.org/2000/svg">
<g filter="url(#filter0_d_419_1671)">
<path d="M11.7822 12.2871V28.6895H20.3896V31H8.68457V12.2871H11.7822ZM30.0635 16.6035C30.9945 16.6543 31.8408 16.8828 32.6025 17.2891C33.3643 17.6784 33.999 18.2031 34.5068 18.8633C35.0316 19.5065 35.4378 20.2598 35.7256 21.123C36.0133 21.9863 36.1572 22.9089 36.1572 23.8906C36.1572 24.8724 36.0049 25.7949 35.7002 26.6582C35.4124 27.5046 35.0062 28.2493 34.4814 28.8926C33.9567 29.5189 33.3135 30.0267 32.5518 30.416C31.79 30.8053 30.9606 31.0339 30.0635 31.1016V28.6641C30.9098 28.4779 31.5954 27.9447 32.1201 27.0645C32.6618 26.1842 32.9326 25.1263 32.9326 23.8906C32.9326 23.2643 32.8649 22.6803 32.7295 22.1387C32.611 21.5801 32.4248 21.0807 32.1709 20.6406C31.917 20.2005 31.6123 19.8366 31.2568 19.5488C30.9014 19.2611 30.5036 19.0749 30.0635 18.9902V16.6035ZM22.9795 23.8398C22.9795 22.8581 23.1234 21.944 23.4111 21.0977C23.6989 20.2513 24.1051 19.515 24.6299 18.8887C25.1715 18.2454 25.8148 17.7292 26.5596 17.3398C27.3044 16.9505 28.1253 16.7135 29.0225 16.6289V18.9902C28.1761 19.1764 27.499 19.7096 26.9912 20.5898C26.4834 21.4701 26.2295 22.528 26.2295 23.7637C26.2295 24.39 26.2887 24.9824 26.4072 25.541C26.5426 26.0996 26.7288 26.599 26.9658 27.0391C27.2028 27.4792 27.4906 27.8431 27.8291 28.1309C28.1846 28.4186 28.5824 28.5964 29.0225 28.6641V31.1016C28.0915 31.0339 27.2536 30.8053 26.5088 30.416C25.764 30.0098 25.1292 29.485 24.6045 28.8418C24.0798 28.1986 23.6735 27.4453 23.3857 26.582C23.1149 25.7188 22.9795 24.8047 22.9795 23.8398ZM39.8135 20.7676C39.8135 20.1243 39.932 19.5488 40.1689 19.041C40.4059 18.5163 40.736 18.0762 41.1592 17.7207C41.5824 17.3483 42.0563 17.0605 42.5811 16.8574C43.1227 16.6374 43.6813 16.502 44.2568 16.4512V18.9902C43.8167 19.0749 43.4697 19.2526 43.2158 19.5234C42.9788 19.7943 42.8604 20.1751 42.8604 20.666C42.8604 21.0723 42.9873 21.4023 43.2412 21.6562C43.512 21.8932 43.8506 22.1048 44.2568 22.291V25.0078C43.9691 24.9232 43.6729 24.8301 43.3682 24.7285C43.0804 24.61 42.7926 24.4831 42.5049 24.3477C41.6077 23.8737 40.9307 23.3743 40.4736 22.8496C40.0335 22.3249 39.8135 21.6309 39.8135 20.7676ZM48.2939 19.7012C47.8369 19.4642 47.346 19.2865 46.8213 19.168C46.3135 19.0495 45.8057 18.9733 45.2979 18.9395V16.4258C46.0596 16.4596 46.762 16.5697 47.4053 16.7559C48.0485 16.9251 48.6748 17.2044 49.2842 17.5938L48.2939 19.7012ZM41.1592 27.8008C41.4977 28.0378 41.8955 28.2578 42.3525 28.4609C42.8265 28.6641 43.4189 28.7656 44.1299 28.7656H44.2568V31.127C43.8337 31.127 43.4443 31.11 43.0889 31.0762C42.7334 31.0592 42.3779 31.0085 42.0225 30.9238C41.6839 30.8223 41.3369 30.6868 40.9814 30.5176C40.626 30.3483 40.2536 30.1283 39.8643 29.8574L41.1592 27.8008ZM45.2979 22.6973C45.8057 22.8665 46.3219 23.0527 46.8467 23.2559C47.3714 23.459 47.8454 23.7129 48.2686 24.0176C48.7087 24.3223 49.0641 24.7031 49.335 25.1602C49.6227 25.6003 49.7666 26.1589 49.7666 26.8359C49.7666 27.4961 49.6481 28.0716 49.4111 28.5625C49.1742 29.0534 48.8525 29.4766 48.4463 29.832C48.057 30.1875 47.5915 30.4668 47.0498 30.6699C46.5081 30.873 45.9242 31.0085 45.2979 31.0762V28.6641C45.8734 28.5625 46.3135 28.3848 46.6182 28.1309C46.9398 27.86 47.1006 27.5046 47.1006 27.0645C47.1006 26.6243 46.9229 26.2858 46.5674 26.0488C46.2288 25.7949 45.8057 25.5749 45.2979 25.3887V22.6973ZM57.8408 26.6582C57.8408 27.2337 57.917 27.6823 58.0693 28.0039C58.2217 28.3255 58.4333 28.571 58.7041 28.7402C58.9919 28.9095 59.305 29.0195 59.6436 29.0703C59.999 29.1042 60.3714 29.1211 60.7607 29.1211V31C60.5407 31.0339 60.3206 31.0592 60.1006 31.0762C59.9144 31.0931 59.6859 31.1016 59.415 31.1016C59.1611 31.1185 58.9072 31.127 58.6533 31.127C58.3994 31.127 58.137 31.1185 57.8662 31.1016C57.6123 31.0846 57.3923 31.0592 57.2061 31.0254C56.6305 30.9238 56.182 30.6784 55.8604 30.2891C55.5387 29.8828 55.2933 29.4427 55.124 28.9688C54.9717 28.4779 54.8701 28.0039 54.8193 27.5469C54.7855 27.0898 54.7686 26.7344 54.7686 26.4805V18.7617H52.8896V16.6797H54.7686V12.6172H57.8408V16.6797H60.126V18.7617H57.8408V26.6582ZM67.4385 31H64.3408V16.6797H67.4385V31ZM67.7178 12.1094C67.7178 12.6172 67.54 13.0488 67.1846 13.4043C66.8291 13.7428 66.3975 13.9121 65.8896 13.9121C65.3818 13.9121 64.9502 13.7344 64.5947 13.3789C64.2562 13.0234 64.0869 12.6003 64.0869 12.1094C64.0869 11.6016 64.2646 11.1699 64.6201 10.8145C64.9756 10.459 65.3988 10.2812 65.8896 10.2812C66.3975 10.2812 66.8291 10.459 67.1846 10.8145C67.54 11.1699 67.7178 11.6016 67.7178 12.1094ZM74.4971 16.6797L74.8271 18.127V31H71.7549V16.6797H74.4971ZM82.4189 18.2539C82.7067 18.5417 82.9268 18.8802 83.0791 19.2695C83.2484 19.6419 83.3669 20.0397 83.4346 20.4629C83.5192 20.8691 83.57 21.2839 83.5869 21.707C83.6038 22.1302 83.6123 22.5449 83.6123 22.9512V30.4922V31H80.5146V23.2051C80.5146 22.6296 80.4893 22.0794 80.4385 21.5547C80.3877 21.0299 80.2692 20.5645 80.083 20.1582C79.8968 19.752 79.6429 19.4388 79.3213 19.2188C78.9997 18.9818 78.5511 18.8633 77.9756 18.8633C77.7386 18.8633 77.417 18.9056 77.0107 18.9902C76.6214 19.0579 76.2406 19.1764 75.8682 19.3457V17.3906C76.3252 17.1536 76.8161 16.9505 77.3408 16.7812C77.8825 16.612 78.4072 16.5273 78.915 16.5273C79.6768 16.5273 80.32 16.6882 80.8447 17.0098C81.3695 17.3145 81.8942 17.7292 82.4189 18.2539ZM98.4404 12.2871H101.538V31H98.4404L92.1436 19.9297V14.0898L98.4404 25.1855V12.2871ZM88.0049 31V12.2871H91.1025V31H88.0049ZM109.308 12.2871V28.6895H117.915V31H106.21V12.2871H109.308Z" fill="#E0D9D9"/>
</g>
<path d="M23.0513 13.1785L29.3544 1.21645C29.3893 1.15074 29.4399 1.09609 29.501 1.05806C29.5621 1.02003 29.6316 1 29.7023 1C29.7731 1 29.8426 1.02003 29.9037 1.05806C29.9648 1.09609 30.0154 1.15074 30.0503 1.21645L36.3534 13.1785C36.3935 13.2552 36.4104 13.3432 36.402 13.4306C36.3935 13.5179 36.36 13.6004 36.306 13.6667C36.2521 13.733 36.1803 13.7799 36.1004 13.801C36.0206 13.8222 35.9366 13.8165 35.8599 13.7848L29.8471 11.2896C29.754 11.251 29.6507 11.251 29.5576 11.2896L23.5448 13.7857C23.468 13.8175 23.3838 13.8233 23.3038 13.8022C23.2238 13.781 23.1519 13.734 23.0979 13.6675C23.0439 13.6011 23.0104 13.5184 23.0021 13.4309C22.9937 13.3434 23.0109 13.2552 23.0513 13.1785Z" fill="#950720" stroke="#950720" stroke-width="1.5" stroke-linecap="round" stroke-linejoin="round"/>
<defs>
<filter id="filter0_d_419_1671" x="4.68457" y="10.2812" width="117.23" height="28.8457" filterUnits="userSpaceOnUse" color-interpolation-filters="sRGB">
<feFlood flood-opacity="0" result="BackgroundImageFix"/>
<feColorMatrix in="SourceAlpha" type="matrix" values="0 0 0 0 0 0 0 0 0 0 0 0 0 0 0 0 0 0 127 0" result="hardAlpha"/>
<feOffset dy="4"/>
<feGaussianBlur stdDeviation="2"/>
<feComposite in2="hardAlpha" operator="out"/>
<feColorMatrix type="matrix" values="0 0 0 0 0.878431 0 0 0 0 0.85098 0 0 0 0 0.85098 0 0 0 1 0"/>
<feBlend mode="normal" in2="BackgroundImageFix" result="effect1_dropShadow_419_1671"/>
<feBlend mode="normal" in="SourceGraphic" in2="effect1_dropShadow_419_1671" result="shape"/>
</filter>
</defs>
</svg>
