<svg width="118" height="40" viewBox="0 0 118 40" fill="none" xmlns="http://www.w3.org/2000/svg">
<g filter="url(#filter0_d_419_1729)">
<path d="M7.78223 12.2871V28.6895H16.3896V31H4.68457V12.2871H7.78223ZM26.0635 16.6035C26.9945 16.6543 27.8408 16.8828 28.6025 17.2891C29.3643 17.6784 29.999 18.2031 30.5068 18.8633C31.0316 19.5065 31.4378 20.2598 31.7256 21.123C32.0133 21.9863 32.1572 22.9089 32.1572 23.8906C32.1572 24.8724 32.0049 25.7949 31.7002 26.6582C31.4124 27.5046 31.0062 28.2493 30.4814 28.8926C29.9567 29.5189 29.3135 30.0267 28.5518 30.416C27.79 30.8053 26.9606 31.0339 26.0635 31.1016V28.6641C26.9098 28.4779 27.5954 27.9447 28.1201 27.0645C28.6618 26.1842 28.9326 25.1263 28.9326 23.8906C28.9326 23.2643 28.8649 22.6803 28.7295 22.1387C28.611 21.5801 28.4248 21.0807 28.1709 20.6406C27.917 20.2005 27.6123 19.8366 27.2568 19.5488C26.9014 19.2611 26.5036 19.0749 26.0635 18.9902V16.6035ZM18.9795 23.8398C18.9795 22.8581 19.1234 21.944 19.4111 21.0977C19.6989 20.2513 20.1051 19.515 20.6299 18.8887C21.1715 18.2454 21.8148 17.7292 22.5596 17.3398C23.3044 16.9505 24.1253 16.7135 25.0225 16.6289V18.9902C24.1761 19.1764 23.499 19.7096 22.9912 20.5898C22.4834 21.4701 22.2295 22.528 22.2295 23.7637C22.2295 24.39 22.2887 24.9824 22.4072 25.541C22.5426 26.0996 22.7288 26.599 22.9658 27.0391C23.2028 27.4792 23.4906 27.8431 23.8291 28.1309C24.1846 28.4186 24.5824 28.5964 25.0225 28.6641V31.1016C24.0915 31.0339 23.2536 30.8053 22.5088 30.416C21.764 30.0098 21.1292 29.485 20.6045 28.8418C20.0798 28.1986 19.6735 27.4453 19.3857 26.582C19.1149 25.7188 18.9795 24.8047 18.9795 23.8398ZM35.8135 20.7676C35.8135 20.1243 35.932 19.5488 36.1689 19.041C36.4059 18.5163 36.736 18.0762 37.1592 17.7207C37.5824 17.3483 38.0563 17.0605 38.5811 16.8574C39.1227 16.6374 39.6813 16.502 40.2568 16.4512V18.9902C39.8167 19.0749 39.4697 19.2526 39.2158 19.5234C38.9788 19.7943 38.8604 20.1751 38.8604 20.666C38.8604 21.0723 38.9873 21.4023 39.2412 21.6562C39.512 21.8932 39.8506 22.1048 40.2568 22.291V25.0078C39.9691 24.9232 39.6729 24.8301 39.3682 24.7285C39.0804 24.61 38.7926 24.4831 38.5049 24.3477C37.6077 23.8737 36.9307 23.3743 36.4736 22.8496C36.0335 22.3249 35.8135 21.6309 35.8135 20.7676ZM44.2939 19.7012C43.8369 19.4642 43.346 19.2865 42.8213 19.168C42.3135 19.0495 41.8057 18.9733 41.2979 18.9395V16.4258C42.0596 16.4596 42.762 16.5697 43.4053 16.7559C44.0485 16.9251 44.6748 17.2044 45.2842 17.5938L44.2939 19.7012ZM37.1592 27.8008C37.4977 28.0378 37.8955 28.2578 38.3525 28.4609C38.8265 28.6641 39.4189 28.7656 40.1299 28.7656H40.2568V31.127C39.8337 31.127 39.4443 31.11 39.0889 31.0762C38.7334 31.0592 38.3779 31.0085 38.0225 30.9238C37.6839 30.8223 37.3369 30.6868 36.9814 30.5176C36.626 30.3483 36.2536 30.1283 35.8643 29.8574L37.1592 27.8008ZM41.2979 22.6973C41.8057 22.8665 42.3219 23.0527 42.8467 23.2559C43.3714 23.459 43.8454 23.7129 44.2686 24.0176C44.7087 24.3223 45.0641 24.7031 45.335 25.1602C45.6227 25.6003 45.7666 26.1589 45.7666 26.8359C45.7666 27.4961 45.6481 28.0716 45.4111 28.5625C45.1742 29.0534 44.8525 29.4766 44.4463 29.832C44.057 30.1875 43.5915 30.4668 43.0498 30.6699C42.5081 30.873 41.9242 31.0085 41.2979 31.0762V28.6641C41.8734 28.5625 42.3135 28.3848 42.6182 28.1309C42.9398 27.86 43.1006 27.5046 43.1006 27.0645C43.1006 26.6243 42.9229 26.2858 42.5674 26.0488C42.2288 25.7949 41.8057 25.5749 41.2979 25.3887V22.6973ZM53.8408 26.6582C53.8408 27.2337 53.917 27.6823 54.0693 28.0039C54.2217 28.3255 54.4333 28.571 54.7041 28.7402C54.9919 28.9095 55.305 29.0195 55.6436 29.0703C55.999 29.1042 56.3714 29.1211 56.7607 29.1211V31C56.5407 31.0339 56.3206 31.0592 56.1006 31.0762C55.9144 31.0931 55.6859 31.1016 55.415 31.1016C55.1611 31.1185 54.9072 31.127 54.6533 31.127C54.3994 31.127 54.137 31.1185 53.8662 31.1016C53.6123 31.0846 53.3923 31.0592 53.2061 31.0254C52.6305 30.9238 52.182 30.6784 51.8604 30.2891C51.5387 29.8828 51.2933 29.4427 51.124 28.9688C50.9717 28.4779 50.8701 28.0039 50.8193 27.5469C50.7855 27.0898 50.7686 26.7344 50.7686 26.4805V18.7617H48.8896V16.6797H50.7686V12.6172H53.8408V16.6797H56.126V18.7617H53.8408V26.6582ZM63.4385 31H60.3408V16.6797H63.4385V31ZM63.7178 12.1094C63.7178 12.6172 63.54 13.0488 63.1846 13.4043C62.8291 13.7428 62.3975 13.9121 61.8896 13.9121C61.3818 13.9121 60.9502 13.7344 60.5947 13.3789C60.2562 13.0234 60.0869 12.6003 60.0869 12.1094C60.0869 11.6016 60.2646 11.1699 60.6201 10.8145C60.9756 10.459 61.3988 10.2812 61.8896 10.2812C62.3975 10.2812 62.8291 10.459 63.1846 10.8145C63.54 11.1699 63.7178 11.6016 63.7178 12.1094ZM70.4971 16.6797L70.8271 18.127V31H67.7549V16.6797H70.4971ZM78.4189 18.2539C78.7067 18.5417 78.9268 18.8802 79.0791 19.2695C79.2484 19.6419 79.3669 20.0397 79.4346 20.4629C79.5192 20.8691 79.57 21.2839 79.5869 21.707C79.6038 22.1302 79.6123 22.5449 79.6123 22.9512V30.4922V31H76.5146V23.2051C76.5146 22.6296 76.4893 22.0794 76.4385 21.5547C76.3877 21.0299 76.2692 20.5645 76.083 20.1582C75.8968 19.752 75.6429 19.4388 75.3213 19.2188C74.9997 18.9818 74.5511 18.8633 73.9756 18.8633C73.7386 18.8633 73.417 18.9056 73.0107 18.9902C72.6214 19.0579 72.2406 19.1764 71.8682 19.3457V17.3906C72.3252 17.1536 72.8161 16.9505 73.3408 16.7812C73.8825 16.612 74.4072 16.5273 74.915 16.5273C75.6768 16.5273 76.32 16.6882 76.8447 17.0098C77.3695 17.3145 77.8942 17.7292 78.4189 18.2539ZM94.4404 12.2871H97.5381V31H94.4404L88.1436 19.9297V14.0898L94.4404 25.1855V12.2871ZM84.0049 31V12.2871H87.1025V31H84.0049ZM105.308 12.2871V28.6895H113.915V31H102.21V12.2871H105.308Z" fill="#090911"/>
</g>
<path d="M18.075 13.3551L24.7829 1.55148C24.82 1.48664 24.8739 1.43271 24.9389 1.39518C25.004 1.35766 25.0779 1.33789 25.1532 1.33789C25.2285 1.33789 25.3025 1.35766 25.3675 1.39518C25.4326 1.43271 25.4864 1.48664 25.5235 1.55148L32.2314 13.3551C32.2741 13.4308 32.2921 13.5177 32.2831 13.6039C32.2741 13.6901 32.2385 13.7714 32.181 13.8368C32.1236 13.9022 32.0472 13.9485 31.9622 13.9694C31.8772 13.9903 31.7878 13.9847 31.7062 13.9534L25.3073 11.4912C25.2082 11.4531 25.0983 11.4531 24.9991 11.4912L18.6002 13.9543C18.5185 13.9857 18.4289 13.9914 18.3438 13.9705C18.2586 13.9497 18.1821 13.9033 18.1246 13.8377C18.0671 13.7721 18.0315 13.6906 18.0226 13.6042C18.0138 13.5178 18.0321 13.4308 18.075 13.3551Z" fill="#950720" stroke="#950720" stroke-width="1.5" stroke-linecap="round" stroke-linejoin="round"/>
<defs>
<filter id="filter0_d_419_1729" x="0.68457" y="10.2812" width="117.23" height="28.8457" filterUnits="userSpaceOnUse" color-interpolation-filters="sRGB">
<feFlood flood-opacity="0" result="BackgroundImageFix"/>
<feColorMatrix in="SourceAlpha" type="matrix" values="0 0 0 0 0 0 0 0 0 0 0 0 0 0 0 0 0 0 127 0" result="hardAlpha"/>
<feOffset dy="4"/>
<feGaussianBlur stdDeviation="2"/>
<feComposite in2="hardAlpha" operator="out"/>
<feColorMatrix type="matrix" values="0 0 0 0 0.0359056 0 0 0 0 0.0352778 0 0 0 0 0.0666667 0 0 0 0.45 0"/>
<feBlend mode="normal" in2="BackgroundImageFix" result="effect1_dropShadow_419_1729"/>
<feBlend mode="normal" in="SourceGraphic" in2="effect1_dropShadow_419_1729" result="shape"/>
</filter>
</defs>
</svg>
