<?xml version="1.0" encoding="iso-8859-1"?>
<!-- Generator: Adobe Illustrator 19.0.1, SVG Export Plug-In . SVG Version: 6.00 Build 0)  -->
<svg version="1.1" xmlns="http://www.w3.org/2000/svg" xmlns:xlink="http://www.w3.org/1999/xlink" x="0px" y="0px"
	 viewBox="0 0 128 128" style="enable-background:new 0 0 128 128;" xml:space="preserve">
<g id="_x31_">
	<path id="_x31__1_" style="fill:#1E1E1E;" d="M63.111,0c-6.374,0-11.53,5.156-11.53,11.53c0,6.358,5.156,11.53,11.53,11.53
		c6.358,0,11.53-5.172,11.53-11.53C74.641,5.156,69.469,0,63.111,0z M91.886,74.995c0.016-0.049,0.033-0.082,0.049-0.132v-0.478
		C91.936,74.599,91.919,74.797,91.886,74.995z M45.684,26.519c-5.436,0.906-9.619,5.683-9.619,11.365v36.501
		c0,0.214,0.016,0.412,0.049,0.61c0.315,2.523,2.569,4.431,5.233,4.178c2.504-0.238,4.336-2.497,4.336-5.012l0-30.264
		c0-0.972,0.791-1.762,1.762-1.762c0.972,0,1.762,0.791,1.762,1.762V128h12.387V81.797c0-1.328,1.077-2.405,2.405-2.405h0
		c1.328,0,2.405,1.077,2.405,2.405V128h12.387V43.897c0-0.972,0.791-1.762,1.762-1.762c0.972,0,1.762,0.791,1.762,1.762v30.264
		c0,2.515,1.833,4.774,4.336,5.012c2.665,0.253,4.918-1.655,5.233-4.178c0.033-0.198,0.049-0.395,0.049-0.61V37.884
		c0-5.683-4.184-10.459-9.619-11.365C81.69,26.404,46.31,26.404,45.684,26.519z"/>
</g>
<g id="Layer_1">
</g>
</svg>
